<svg xmlns="http://www.w3.org/2000/svg" xmlns:xlink="http://www.w3.org/1999/xlink" viewBox="0 0 240.41 189.82">
<defs><style>.cls-1{isolation:isolate;}.cls-2{fill:none;stroke:#3b4da1;}.cls-2,.cls-3,.cls-8{stroke-miterlimit:10;}.cls-3{fill:#none;stroke:#6cbe45;}.cls-4,.cls-8{fill:none;}.cls-5{opacity:0.15;fill:url(#radial-gradient);}.cls-5,.cls-6,.cls-7,.cls-8{mix-blend-mode:screen;}.cls-6{opacity:0.5;fill:url(#radial-gradient-2);}.cls-7{fill:url(#radial-gradient-3);}.cls-8{stroke:#fff;stroke-width:2px;opacity:0.03;}</style><radialGradient id="radial-gradient" cx="113.91" cy="94.33" r="41.04" gradientUnits="userSpaceOnUse"><stop offset="0" stop-color="#230000"/><stop offset="0.73" stop-color="#93432a"/><stop offset="1" stop-color="#230000"/></radialGradient><radialGradient id="radial-gradient-2" cx="113.91" cy="94.33" r="20.52" gradientUnits="userSpaceOnUse"><stop offset="0.15" stop-color="#fff"/><stop offset="0.21" stop-color="#e2d1d2"/><stop offset="0.29" stop-color="#bf9a9c"/><stop offset="0.36" stop-color="#a67276"/><stop offset="0.42" stop-color="#975a5e"/><stop offset="0.45" stop-color="#915155"/><stop offset="0.56" stop-color="#6c3638"/><stop offset="0.68" stop-color="#44191a"/><stop offset="0.79" stop-color="#2c0707"/><stop offset="0.85" stop-color="#230000"/><stop offset="0.86" stop-color="#270201"/><stop offset="0.86" stop-color="#340805"/><stop offset="0.87" stop-color="#48120b"/><stop offset="0.88" stop-color="#652114"/><stop offset="0.89" stop-color="#8b331f"/><stop offset="0.9" stop-color="#b8492d"/><stop offset="0.9" stop-color="#d65836"/><stop offset="0.9" stop-color="#c95232"/><stop offset="0.91" stop-color="#9d3c25"/><stop offset="0.93" stop-color="#782a1a"/><stop offset="0.94" stop-color="#591b10"/><stop offset="0.95" stop-color="#410f09"/><stop offset="0.97" stop-color="#300604"/><stop offset="0.98" stop-color="#260201"/><stop offset="1" stop-color="#230000"/></radialGradient><radialGradient id="radial-gradient-3" cx="113.91" cy="94.33" r="17.1" gradientUnits="userSpaceOnUse"><stop offset="0.15" stop-color="#fff"/><stop offset="0.28" stop-color="#c2c2c2"/><stop offset="0.43" stop-color="#888"/><stop offset="0.56" stop-color="#575757"/><stop offset="0.69" stop-color="#313131"/><stop offset="0.81" stop-color="#161616"/><stop offset="0.92" stop-color="#060606"/><stop offset="1"/></radialGradient></defs><title>pic_created_by_illu</title>
<g class="cls-1"><g id="Layer_1" data-name="Layer 1">
<path class="cls-2" d="M432,392.51c0,66.54-77.29,105.57-149.17,91.69-54.67-10.56-90.24-50.06-90.24-90.31s35.57-80.17,90.24-91.35C354.71,287.83,432,326,432,392.51Z" transform="translate(-192.09 -297.67)"/>
<polygon class="cls-3" points="176.91 167.33 123.36 145.39 89.52 185.48 85.62 121.66 51.62 91.26 87.59 65.53 96.06 1.36 127.11 46.84 182.63 32.03 152.58 98.17 176.91 167.33"/><line class="cls-4" x1="113.91" y1="94.33" x2="127.91" y2="109.33"/><circle class="cls-4" cx="113.91" cy="94.33" r="17.1"/><animateTransform attributeName="transform"
                      type="scale"
                      from="1 1" to="0.1 0.1"
                      begin="0s" dur="3s"
                      repeatCount="indefinite"
            />
<circle class="cls-4" cx="113.91" cy="94.33" r="20.52"/>    
<polyline class="cls-4" points="113.91 94.33 48.14 137.35 113.91 94.33 179.68 51.3 113.91 94.33 70.88 28.56 113.91 94.33 156.93 160.1 113.91 94.33 122.63 182.63 113.91 94.33 105.19 6.04 113.91 94.33 25.61 103.05 113.91 94.33 202.2 85.61 113.91 94.33 125.66 115.1 113.91 94.33 102.16 73.56 113.91 94.33 93.14 106.08 113.91 94.33 134.68 82.58 113.91 94.33 100.6 106.87 113.91 94.33 127.22 81.79 113.91 94.33 101.37 81.02 113.91 94.33 126.45 107.64 113.91 94.33 59.19 159.55 113.91 94.33 168.63 29.11 113.91 94.33 48.69 39.61 113.91 94.33 179.13 149.05 113.91 94.33 134.81 144.69 113.91 94.33 93 43.97 113.91 94.33 63.54 115.23 113.91 94.33 164.27 73.42 113.91 94.33 136.38 157.9 113.91 94.33 91.43 30.76 113.91 94.33 50.34 116.81 113.91 94.33 177.48 71.85 113.91 94.33 108.69 103.52 113.91 94.33 119.13 85.14 113.91 94.33 104.72 89.11 113.91 94.33 123.09 99.55 113.91 94.33 112.07 111.22 113.91 94.33 115.75 77.44 113.91 94.33 97.02 92.49 113.91 94.33 130.8 96.17 113.91 94.33 121 147.88 113.91 94.33 106.82 40.78 113.91 94.33 60.36 101.42 113.91 94.33 167.46 87.24 113.91 94.33 139.08 141.95 113.91 94.33 88.74 46.7 113.91 94.33 66.28 119.5 113.91 94.33 161.53 69.16 113.91 94.33 106.78 101.99 113.91 94.33 121.03 86.67 113.91 94.33 106.25 87.21 113.91 94.33 121.57 101.45 113.91 94.33 154.31 179.36 113.91 94.33 73.5 9.3 113.91 94.33 28.88 134.73 113.91 94.33 198.94 53.93 113.91 94.33 135.83 185.01 113.91 94.33 91.99 3.65 113.91 94.33 23.22 116.25 113.91 94.33 204.59 72.41 113.91 94.33 55.36 153.79 113.91 94.33 172.46 34.87 113.91 94.33 54.45 35.78 113.91 94.33 173.37 152.88"/><circle class="cls-5" cx="113.91" cy="94.33" r="41.04"/><circle class="cls-6" cx="113.91" cy="94.33" r="20.52"/><circle class="cls-7" cx="113.91" cy="94.33" r="17.1"/><polyline class="cls-8" points="113.91 94.33 48.14 137.35 113.91 94.33 179.68 51.3 113.91 94.33 70.88 28.56 113.91 94.33 156.93 160.1 113.91 94.33 122.63 182.63 113.91 94.33 105.19 6.04 113.91 94.33 25.61 103.05 113.91 94.33 202.2 85.61 113.91 94.33 125.66 115.1 113.91 94.33 102.16 73.56 113.91 94.33 93.14 106.08 113.91 94.33 134.68 82.58 113.91 94.33 100.6 106.87 113.91 94.33 127.22 81.79 113.91 94.33 101.37 81.02 113.91 94.33 126.45 107.64 113.91 94.33 59.19 159.55 113.91 94.33 168.63 29.11 113.91 94.33 48.69 39.61 113.91 94.33 179.13 149.05 113.91 94.33 134.81 144.69 113.91 94.33 93 43.97 113.91 94.33 63.54 115.23 113.91 94.33 164.27 73.42 113.91 94.33 136.38 157.9 113.91 94.33 91.43 30.76 113.91 94.33 50.34 116.81 113.91 94.33 177.48 71.85 113.91 94.33 108.69 103.52 113.91 94.33 119.13 85.14 113.91 94.33 104.72 89.11 113.91 94.33 123.09 99.55 113.91 94.33 112.07 111.22 113.91 94.33 115.75 77.44 113.91 94.33 97.02 92.49 113.91 94.33 130.8 96.17 113.91 94.33 121 147.88 113.91 94.33 106.82 40.78 113.91 94.33 60.36 101.42 113.91 94.33 167.46 87.24 113.91 94.33 139.08 141.95 113.91 94.33 88.74 46.7 113.91 94.33 66.28 119.5 113.91 94.33 161.53 69.16 113.91 94.33 106.78 101.99 113.91 94.33 121.03 86.67 113.91 94.33 106.25 87.21 113.91 94.33 121.57 101.45 113.91 94.33 154.31 179.36 113.91 94.33 73.5 9.3 113.91 94.33 28.88 134.73 113.91 94.33 198.94 53.93 113.91 94.33 135.83 185.01 113.91 94.33 91.99 3.65 113.91 94.33 23.22 116.25 113.91 94.33 204.59 72.41 113.91 94.33 55.36 153.79 113.91 94.33 172.46 34.87 113.91 94.33 54.45 35.78 113.91 94.33 173.37 152.88"/></g></g>
</svg>