<?xml version="1.0" encoding="UTF-8"?>
<!DOCTYPE svg PUBLIC "-//W3C//DTD SVG 1.1//EN" "http://www.w3.org/Graphics/SVG/1.1/DTD/svg11.dtd">
<svg version="1.1" xmlns="http://www.w3.org/2000/svg" 
       xmlns:xlink="http://www.w3.org/1999/xlink" width="160" height="300"  
       xml:space="preserve">

 <style type="text/css" id="style_css_sheet">

.flame
{
    fill: #57068C;
    stroke: white;
    stroke-width: 1.5;
    stroke-miterlimit: 4;
}

path:hover
{  
    fill:#f19709;
}

 </style>

	<path class="flame" d="M173.1,231.1 L173.1,231.1 M67.7,276c0.4,2.6,6,3.9,7.3,0 L88,173.5H56.5L67.7,276L67.7,276z"/>
	
	<path class="flame" d="M98.9,166.1 v-15.5H45.5v15.5H98.9L98.9,166.1z"/>
	
	<path class="flame" d="M83.6,142.9c67.7,2.4,72.5-59.3,72.8-82.4c0-1.3-0.6-1.4-1-0.5c-2,4.8-10.8,22-35.2,32.5
			c-21.8,9.4-34.9,30.6-37.2,49.7C82.8,142.7,83.2,142.9,83.6,142.9z"/>
	
	<path class="flame" d="M76.1,138.5c10.7-51.4,52.6-52.7,56.3-62.4
			c5.9-15.2-4.8-42.2-7.6-45.4c-0.3-0.3-0.6-0.1-0.8,0.2c-5.7,12.5-14.9,24.3-21.6,29.8c-9.5,7.6-45.8,34.6-27.2,77.9
			C75.5,139,76,138.9,76.1,138.5z"/>
	
	<path class="flame" d="M68.7,140.5C46,92.1,91.4,60.8,98.8,54c1-1,0.8-1.8,0.8-2.9c0-15.2-8.7-40-11.6-43.5
			c-0.4-0.6-0.8-0.3-0.9,0.2c-3.9,15.1-24.5,37.5-28.7,42.4c-35,41.6-27,67,9.5,90.9C68.4,141.4,69,141.1,68.7,140.5z"/> 
	
	<path class="flame" d="M58.6,142.2
			c-38-22.7-34.2-55-18.4-78.7c0.3-0.5,0.4-1.3,0.3-2.3c-0.6-5.7-6.8-20-9.4-23.8c-0.7-1-1.2-0.9-1.3-0.2
			c-0.2,6.5-7.6,22.7-18.8,41.3c-12,19.9-12,63,47.4,64.7C59,143.1,59.1,142.6,58.6,142.2z"/>
</svg>
